# Hierarchical Translation and Rotation (.htr) file
# Generated by EVaRT
[Header]
FileType htr
DataType HTRS
FileVersion 1
NumSegments 23
NumFrames 6
DataFrameRate 120
EulerRotationOrder ZYX
CalibrationUnits mm
RotationUnits Degrees
GlobalAxisofGravity Y
BoneLengthAxis Y
ScaleFactor 1
[SegmentNames&Hierarchy]
#CHILD            PARENT
DaveRoot          GLOBAL
Spine1            DaveRoot
Spine2            Spine1
Spine3            Spine2
Spine4            Spine3
Neck              Spine4
Head              Neck
LClavicle         Spine4
LUpperArm         LClavicle
LLowerArm         LUpperArm
LHand             LLowerArm
RClavicle         Spine4
RUpperArm         RClavicle
RLowerArm         RUpperArm
RHand             RLowerArm
RUpperLeg         DaveRoot
RLowerLeg         RUpperLeg
RFoot             RLowerLeg
RToes             RFoot
LUpperLeg         DaveRoot
LLowerLeg         LUpperLeg
LFoot             LLowerLeg
LToes             LFoot
[BasePosition]
#SegmentName      Tx   Ty   Tz   Rx   Ry   Rz   BoneLength
DaveRoot          30.502683	1014.050144	-392.030244	16.346492	-1.112010	-1.464339	100.000000
Spine1            0.000000	100.000000	0.000000	-16.708095	0.289044	-0.213389	100.000000
Spine2            0.000000	100.000000	0.000000	4.757952	0.249599	-0.116624	100.000000
Spine3            0.000000	100.000000	0.000000	11.084253	0.260929	-0.088411	100.000000
Spine4            0.000000	100.000000	0.000000	12.228282	1.332274	1.443083	100.000000
Neck              0.000000	100.000000	0.000000	10.147668	18.171820	1.381874	80.000000
Head              0.000000	80.000000	0.000000	-46.518491	-1.401195	-5.185409	200.000000
LClavicle         0.000000	100.000000	0.000000	-3.689620	-1.992124	-101.831237	200.000000
LUpperArm         0.000000	200.000000	0.000000	-0.284445	-3.207106	1.762499	300.000000
LLowerArm         0.000000	300.000000	0.000000	9.834184	2.175812	1.895763	200.000000
LHand             0.000000	200.000000	0.000000	-2.090742	-1.768569	8.793625	120.000000
RClavicle         0.000000	100.000000	0.000000	-0.558465	-3.870894	107.984856	200.000000
RUpperArm         0.000000	200.000000	0.000000	6.860362	-6.098052	-15.811317	300.000000
RLowerArm         0.000000	300.000000	0.000000	5.698581	-3.682026	-7.348670	200.000000
RHand             0.000000	200.000000	0.000000	-4.626921	6.468423	-3.971303	120.000000
RUpperLeg         -115.911102	-10.000000	31.058285	22.974686	25.481186	-170.503396	530.000000
RLowerLeg         0.000000	530.000000	0.000000	-7.725558	0.479387	-2.520024	460.000000
RFoot             0.000000	460.000000	0.000000	81.786251	-5.006629	-0.462861	130.000000
RToes             0.000000	130.000000	0.000000	20.181248	0.005479	-0.002881	100.000000
LUpperLeg         115.911102	-10.000000	31.058285	21.582405	10.065134	-177.228489	530.000000
LLowerLeg         0.000000	530.000000	0.000000	-4.243927	-3.275937	3.046484	460.000000
LFoot             0.000000	460.000000	0.000000	77.706358	-14.203819	16.055021	130.000000
LToes             0.000000	130.000000	0.000000	27.168776	-0.000000	-0.000086	100.000000
#Beginning of Data.
[DaveRoot]
#Fr	Tx	Ty	Tz	Rx	Ry	Rz	SF
1234	188.938416	-6.257741	268.055224	-60.155180	68.988590	-67.643269	1.000000	
1235	189.019823	-6.837317	265.343459	-60.194107	68.903478	-67.494577	1.000000	
1236	188.967981	-7.559840	262.417811	-60.137033	68.815638	-67.274499	1.000000	
1237	188.911760	-8.233935	259.259145	-60.205412	68.720640	-66.981332	1.000000	
1238	188.659031	-9.192929	256.014466	-60.488773	68.637549	-66.622020	1.000000	
1239	188.399835	-9.790147	252.481957	-59.812740	68.498841	-65.757330	1.000000	
[Spine1]
#Fr	Tx	Ty	Tz	Rx	Ry	Rz	SF
1234	0.000000	0.000000	0.000000	1.767078	-0.077162	-0.567781	1.000000	
1235	0.000000	0.000000	0.000000	1.528115	-0.112940	-0.600817	1.000000	
1236	0.000000	0.000000	0.000000	1.263125	-0.099034	-0.608083	1.000000	
1237	0.000000	0.000000	0.000000	1.328873	-0.175932	-0.613650	1.000000	
1238	0.000000	0.000000	0.000000	1.924168	-0.364854	-0.603011	1.000000	
1239	0.000000	0.000000	0.000000	1.735654	-0.322507	-0.597513	1.000000	
[Spine2]
#Fr	Tx	Ty	Tz	Rx	Ry	Rz	SF
1234	0.000000	0.000000	0.000000	1.767078	-0.077162	-0.567781	1.000000	
1235	0.000000	0.000000	0.000000	1.528115	-0.112940	-0.600817	1.000000	
1236	0.000000	0.000000	0.000000	1.263125	-0.099034	-0.608083	1.000000	
1237	0.000000	0.000000	0.000000	1.328873	-0.175932	-0.613650	1.000000	
1238	0.000000	0.000000	0.000000	1.924168	-0.364854	-0.603011	1.000000	
1239	0.000000	0.000000	0.000000	1.735654	-0.322507	-0.597513	1.000000	
[Spine3]
#Fr	Tx	Ty	Tz	Rx	Ry	Rz	SF
1234	0.000000	0.000000	0.000000	1.767078	-0.077162	-0.567781	1.000000	
1235	0.000000	0.000000	0.000000	1.528115	-0.112940	-0.600817	1.000000	
1236	0.000000	0.000000	0.000000	1.263125	-0.099034	-0.608083	1.000000	
1237	0.000000	0.000000	0.000000	1.328873	-0.175932	-0.613650	1.000000	
1238	0.000000	0.000000	0.000000	1.924168	-0.364854	-0.603011	1.000000	
1239	0.000000	0.000000	0.000000	1.735654	-0.322507	-0.597513	1.000000	
[Spine4]
#Fr	Tx	Ty	Tz	Rx	Ry	Rz	SF
1234	0.000000	0.000000	0.000000	1.767078	-0.077162	-0.567781	1.000000	
1235	0.000000	0.000000	0.000000	1.528115	-0.112940	-0.600817	1.000000	
1236	0.000000	0.000000	0.000000	1.263125	-0.099034	-0.608083	1.000000	
1237	0.000000	0.000000	0.000000	1.328873	-0.175932	-0.613650	1.000000	
1238	0.000000	0.000000	0.000000	1.924168	-0.364854	-0.603011	1.000000	
1239	0.000000	0.000000	0.000000	1.735654	-0.322507	-0.597513	1.000000	
[Neck]
#Fr	Tx	Ty	Tz	Rx	Ry	Rz	SF
1234	0.000000	0.000000	0.000000	4.810895	-21.529104	4.722975	1.000000	
1235	0.000000	0.000000	0.000000	5.971922	-21.963868	4.971204	1.000000	
1236	0.000000	0.000000	0.000000	7.253990	-22.545535	5.096283	1.000000	
1237	0.000000	0.000000	0.000000	7.267685	-22.733599	5.268633	1.000000	
1238	0.000000	0.000000	0.000000	5.124052	-22.382814	5.496381	1.000000	
1239	0.000000	0.000000	0.000000	6.072930	-22.738423	5.500194	1.000000	
[Head]
#Fr	Tx	Ty	Tz	Rx	Ry	Rz	SF
1234	0.000000	0.000000	0.000000	4.810895	-21.529104	4.722975	1.000000	
1235	0.000000	0.000000	0.000000	5.971922	-21.963868	4.971204	1.000000	
1236	0.000000	0.000000	0.000000	7.253990	-22.545535	5.096283	1.000000	
1237	0.000000	0.000000	0.000000	7.267685	-22.733599	5.268633	1.000000	
1238	0.000000	0.000000	0.000000	5.124052	-22.382814	5.496381	1.000000	
1239	0.000000	0.000000	0.000000	6.072930	-22.738423	5.500194	1.000000	
[LClavicle]
#Fr	Tx	Ty	Tz	Rx	Ry	Rz	SF
1234	0.000000	0.000000	0.000000	10.029052	1.783085	-12.608233	1.000000	
1235	0.000000	0.000000	0.000000	12.893358	2.387208	-12.942316	1.000000	
1236	0.000000	0.000000	0.000000	16.408002	3.027751	-12.798699	1.000000	
1237	0.000000	0.000000	0.000000	16.245064	3.062662	-13.019972	1.000000	
1238	0.000000	0.000000	0.000000	10.995987	2.063780	-13.129279	1.000000	
1239	0.000000	0.000000	0.000000	12.704636	2.443830	-13.339751	1.000000	
[LUpperArm]
#Fr	Tx	Ty	Tz	Rx	Ry	Rz	SF
1234	0.000000	0.000000	0.000000	52.774384	52.389513	-9.849813	1.000000	
1235	0.000000	0.000000	0.000000	43.244696	51.678578	-16.210276	1.000000	
1236	0.000000	0.000000	0.000000	24.261471	44.884723	-29.573800	1.000000	
1237	0.000000	0.000000	0.000000	27.309401	47.610688	-28.293914	1.000000	
1238	0.000000	0.000000	0.000000	45.505217	51.919563	-16.860410	1.000000	
1239	0.000000	0.000000	0.000000	39.271324	50.377889	-22.014142	1.000000	
[LLowerArm]
#Fr	Tx	Ty	Tz	Rx	Ry	Rz	SF
1234	0.000000	0.000000	0.000000	-7.858289	0.000000	0.000000	1.000000	
1235	0.000000	0.000000	0.000000	-2.878896	-0.000000	0.000000	1.000000	
1236	0.000000	0.000000	0.000000	15.333953	-0.000000	0.000000	1.000000	
1237	0.000000	0.000000	0.000000	8.016566	0.000000	0.000000	1.000000	
1238	0.000000	0.000000	0.000000	-6.940062	0.000000	0.000000	1.000000	
1239	0.000000	0.000000	0.000000	-5.644238	0.000000	0.000000	1.000000	
[LHand]
#Fr	Tx	Ty	Tz	Rx	Ry	Rz	SF
1234	0.000000	0.000000	0.000000	20.799297	-0.000000	-0.000000	1.000000	
1235	0.000000	0.000000	0.000000	16.809400	-0.000000	-0.000000	1.000000	
1236	0.000000	0.000000	0.000000	2.045687	-0.000000	-0.000000	1.000000	
1237	0.000000	0.000000	0.000000	7.637901	-0.000000	-0.000000	1.000000	
1238	0.000000	0.000000	0.000000	17.781743	-0.000000	-0.000000	1.000000	
1239	0.000000	0.000000	0.000000	16.938675	-0.000000	-0.000000	1.000000	
[RClavicle]
#Fr	Tx	Ty	Tz	Rx	Ry	Rz	SF
1234	0.000000	0.000000	0.000000	4.214094	-0.600777	7.912980	1.000000	
1235	0.000000	0.000000	0.000000	5.171138	-0.758333	8.134150	1.000000	
1236	0.000000	0.000000	0.000000	6.054604	-0.892168	8.165244	1.000000	
1237	0.000000	0.000000	0.000000	6.147186	-0.926848	8.355380	1.000000	
1238	0.000000	0.000000	0.000000	4.475680	-0.718127	8.910939	1.000000	
1239	0.000000	0.000000	0.000000	5.097304	-0.811446	8.835251	1.000000	
[RUpperArm]
#Fr	Tx	Ty	Tz	Rx	Ry	Rz	SF
1234	0.000000	0.000000	0.000000	34.617326	-21.156230	33.921892	1.000000	
1235	0.000000	0.000000	0.000000	31.800216	-20.140833	36.317586	1.000000	
1236	0.000000	0.000000	0.000000	28.734409	-18.370950	39.292094	1.000000	
1237	0.000000	0.000000	0.000000	28.711035	-18.414851	39.241140	1.000000	
1238	0.000000	0.000000	0.000000	33.327715	-19.710636	35.460275	1.000000	
1239	0.000000	0.000000	0.000000	31.350931	-19.036763	37.232651	1.000000	
[RLowerArm]
#Fr	Tx	Ty	Tz	Rx	Ry	Rz	SF
1234	0.000000	0.000000	0.000000	14.418655	0.000000	0.000000	1.000000	
1235	0.000000	0.000000	0.000000	15.989038	0.000000	0.000000	1.000000	
1236	0.000000	0.000000	0.000000	18.302325	0.000000	0.000000	1.000000	
1237	0.000000	0.000000	0.000000	17.880385	0.000000	0.000000	1.000000	
1238	0.000000	0.000000	0.000000	15.336660	0.000000	0.000000	1.000000	
1239	0.000000	0.000000	0.000000	16.112175	0.000000	0.000000	1.000000	
[RHand]
#Fr	Tx	Ty	Tz	Rx	Ry	Rz	SF
1234	0.000000	0.000000	0.000000	13.104167	-8.320894	-1.828284	1.000000	
1235	0.000000	0.000000	0.000000	11.660896	-8.693651	-1.701986	1.000000	
1236	0.000000	0.000000	0.000000	9.148987	-9.715979	-1.695946	1.000000	
1237	0.000000	0.000000	0.000000	9.955676	-9.363340	-1.811538	1.000000	
1238	0.000000	0.000000	0.000000	11.931188	-8.025427	-2.141284	1.000000	
1239	0.000000	0.000000	0.000000	11.453742	-8.386661	-2.044590	1.000000	
[RUpperLeg]
#Fr	Tx	Ty	Tz	Rx	Ry	Rz	SF
1234	0.000000	0.000000	0.000000	1.637103	2.474398	-1.943075	1.000000	
1235	0.000000	0.000000	0.000000	1.354681	2.472464	-2.085132	1.000000	
1236	0.000000	0.000000	0.000000	1.169880	2.339939	-2.210330	1.000000	
1237	0.000000	0.000000	0.000000	0.802030	2.113614	-2.434607	1.000000	
1238	0.000000	0.000000	0.000000	0.259864	1.746992	-2.789309	1.000000	
1239	0.000000	0.000000	0.000000	0.204174	1.152343	-2.875945	1.000000	
[RLowerLeg]
#Fr	Tx	Ty	Tz	Rx	Ry	Rz	SF
1234	0.000000	0.000000	0.000000	-1.998914	0.000000	0.000000	1.000000	
1235	0.000000	0.000000	0.000000	-1.588978	-0.000000	0.000000	1.000000	
1236	0.000000	0.000000	0.000000	-1.305669	-0.000000	0.000000	1.000000	
1237	0.000000	0.000000	0.000000	-0.972220	0.000000	0.000000	1.000000	
1238	0.000000	0.000000	0.000000	-0.751262	-0.000000	0.000000	1.000000	
1239	0.000000	0.000000	0.000000	-0.542948	0.000000	0.000000	1.000000	
[RFoot]
#Fr	Tx	Ty	Tz	Rx	Ry	Rz	SF
1234	0.000000	0.000000	0.000000	-3.461608	4.810443	-22.903074	1.000000	
1235	0.000000	0.000000	0.000000	-3.675602	4.901269	-22.869932	1.000000	
1236	0.000000	0.000000	0.000000	-3.881491	4.907219	-22.924381	1.000000	
1237	0.000000	0.000000	0.000000	-4.237847	4.687638	-23.051570	1.000000	
1238	0.000000	0.000000	0.000000	-4.552994	4.390076	-23.258683	1.000000	
1239	0.000000	0.000000	0.000000	-5.037210	3.753709	-23.586236	1.000000	
[RToes]
#Fr	Tx	Ty	Tz	Rx	Ry	Rz	SF
1234	0.000000	0.000000	0.000000	-6.545419	-0.000000	0.000000	1.000000	
1235	0.000000	0.000000	0.000000	-6.578028	-0.000000	0.000000	1.000000	
1236	0.000000	0.000000	0.000000	-6.499517	-0.000000	0.000000	1.000000	
1237	0.000000	0.000000	0.000000	-6.216240	-0.000000	0.000000	1.000000	
1238	0.000000	0.000000	0.000000	-5.872233	-0.000000	0.000000	1.000000	
1239	0.000000	0.000000	0.000000	-5.193986	-0.000000	0.000000	1.000000	
[LUpperLeg]
#Fr	Tx	Ty	Tz	Rx	Ry	Rz	SF
1234	0.000000	0.000000	0.000000	-4.755945	2.831695	5.141516	1.000000	
1235	0.000000	0.000000	0.000000	-4.870548	2.280043	5.178394	1.000000	
1236	0.000000	0.000000	0.000000	-4.925006	1.879978	5.154325	1.000000	
1237	0.000000	0.000000	0.000000	-5.186377	1.649017	5.021871	1.000000	
1238	0.000000	0.000000	0.000000	-5.703795	1.524365	4.781513	1.000000	
1239	0.000000	0.000000	0.000000	-5.775000	1.370988	4.593600	1.000000	
[LLowerLeg]
#Fr	Tx	Ty	Tz	Rx	Ry	Rz	SF
1234	0.000000	0.000000	0.000000	-16.017880	-0.000000	-0.000000	1.000000	
1235	0.000000	0.000000	0.000000	-16.095708	-0.000000	-0.000000	1.000000	
1236	0.000000	0.000000	0.000000	-16.249553	-0.000000	-0.000000	1.000000	
1237	0.000000	0.000000	0.000000	-16.376258	-0.000000	-0.000000	1.000000	
1238	0.000000	0.000000	0.000000	-16.525083	-0.000000	-0.000000	1.000000	
1239	0.000000	0.000000	0.000000	-16.633821	0.000000	-0.000000	1.000000	
[LFoot]
#Fr	Tx	Ty	Tz	Rx	Ry	Rz	SF
1234	0.000000	0.000000	0.000000	14.697988	-4.390087	-10.580373	1.000000	
1235	0.000000	0.000000	0.000000	14.930088	-3.837615	-10.954480	1.000000	
1236	0.000000	0.000000	0.000000	15.115919	-3.122832	-10.979975	1.000000	
1237	0.000000	0.000000	0.000000	15.238915	-2.492678	-10.817245	1.000000	
1238	0.000000	0.000000	0.000000	15.318385	-1.792394	-10.443719	1.000000	
1239	0.000000	0.000000	0.000000	15.360825	-1.259251	-9.931376	1.000000	
[LToes]
#Fr	Tx	Ty	Tz	Rx	Ry	Rz	SF
1234	0.000000	0.000000	0.000000	-0.405705	0.000000	-0.000000	1.000000	
1235	0.000000	0.000000	0.000000	-0.195919	0.000000	-0.000000	1.000000	
1236	0.000000	0.000000	0.000000	0.133207	0.000000	-0.000000	1.000000	
1237	0.000000	0.000000	0.000000	0.342070	0.000000	-0.000000	1.000000	
1238	0.000000	0.000000	0.000000	0.653316	0.000000	-0.000000	1.000000	
1239	0.000000	0.000000	0.000000	0.810452	0.000000	-0.000000	1.000000	
